<svg width="30" height="29" viewBox="0 0 30 29" fill="none" xmlns="http://www.w3.org/2000/svg">
<path d="M29 15C29 14.2268 28.3732 13.6 27.6 13.6C26.8268 13.6 26.2 14.2268 26.2 15H29ZM15 3.8C15.7732 3.8 16.4 3.1732 16.4 2.4C16.4 1.6268 15.7732 1 15 1V3.8ZM25.5 26.2H4.5V29H25.5V26.2ZM3.8 25.5V4.5H1V25.5H3.8ZM26.2 15V25.5H29V15H26.2ZM4.5 3.8H15V1H4.5V3.8ZM4.5 26.2C4.1134 26.2 3.8 25.8866 3.8 25.5H1C1 27.433 2.567 29 4.5 29V26.2ZM25.5 29C27.433 29 29 27.433 29 25.5H26.2C26.2 25.8866 25.8866 26.2 25.5 26.2V29ZM3.8 4.5C3.8 4.1134 4.1134 3.8 4.5 3.8V1C2.56701 1 1 2.567 1 4.5H3.8Z" fill="#BFB9B0"/>
<path d="M2.39844 22.7001L9.88361 15.8387C10.4057 15.3601 11.203 15.3468 11.7407 15.8078L20.5984 23.4001" stroke="#BFB9B0" stroke-width="3" stroke-linecap="round" stroke-linejoin="round"/>
<path d="M17.7969 19.8999L21.1383 16.5585C21.6309 16.0659 22.4109 16.0104 22.9683 16.4285L27.5969 19.8999" stroke="#BFB9B0" stroke-width="3" stroke-linecap="round" stroke-linejoin="round"/>
<path d="M19.2031 6.59961H27.6031" stroke="#BFB9B0" stroke-width="3" stroke-linecap="round" stroke-linejoin="round"/>
<path d="M23.3984 2.40039V10.8004" stroke="#BFB9B0" stroke-width="3" stroke-linecap="round" stroke-linejoin="round"/>
</svg>
