<svg width="17" height="16" viewBox="0 0 17 16" fill="none" xmlns="http://www.w3.org/2000/svg">
<path d="M8.4507 0C3.80282 0 0 3.6 0 8C0 12.4 3.80282 16 8.4507 16C13.0986 16 16.9014 12.4 16.9014 8C16.9014 3.6 13.0986 0 8.4507 0ZM8.4507 14.4C4.72394 14.4 1.69014 11.528 1.69014 8C1.69014 4.472 4.72394 1.6 8.4507 1.6C12.1775 1.6 15.2113 4.472 15.2113 8C15.2113 11.528 12.1775 14.4 8.4507 14.4ZM12.3296 4.464L6.76056 9.736L4.57183 7.672L3.38028 8.8L6.76056 12L13.5211 5.6L12.3296 4.464Z" fill="#027A48"/>
</svg>
