<svg width="18" height="21" viewBox="0 0 18 21" fill="none" xmlns="http://www.w3.org/2000/svg">
<path d="M17.6216 14.203C17.5438 14.1112 17.4675 14.0193 17.3926 13.9307C16.3622 12.7088 15.7388 11.9714 15.7388 8.51235C15.7388 6.72153 15.3018 5.25214 14.4405 4.1501C13.8054 3.33597 12.9469 2.71837 11.8154 2.26194C11.8008 2.254 11.7878 2.24358 11.777 2.23117C11.37 0.894949 10.2562 0 9.00012 0C7.74399 0 6.63071 0.894949 6.22371 2.2298C6.21285 2.24175 6.20002 2.25183 6.18577 2.25964C3.54519 3.32541 2.26189 5.37015 2.26189 8.51097C2.26189 11.9714 1.63945 12.7088 0.608132 13.9293C0.533196 14.018 0.456854 14.108 0.379107 14.2016C0.178277 14.4391 0.0510342 14.728 0.0124382 15.0341C-0.0261579 15.3403 0.0255081 15.6508 0.161322 15.9291C0.450297 16.526 1.06618 16.8966 1.76918 16.8966H16.2362C16.9359 16.8966 17.5476 16.5265 17.8375 15.9323C17.9739 15.654 18.0261 15.3432 17.9878 15.0367C17.9495 14.7302 17.8224 14.4409 17.6216 14.203ZM9.00012 20.5714C9.67691 20.5709 10.3409 20.3908 10.9218 20.0502C11.5026 19.7096 11.9786 19.2212 12.2992 18.6369C12.3143 18.6089 12.3218 18.5775 12.3209 18.5459C12.32 18.5142 12.3107 18.4833 12.294 18.4562C12.2773 18.429 12.2538 18.4066 12.2256 18.391C12.1975 18.3755 12.1657 18.3673 12.1334 18.3673H5.86776C5.83541 18.3672 5.80358 18.3753 5.77537 18.3909C5.74716 18.4064 5.72354 18.4288 5.70679 18.456C5.69005 18.4831 5.68077 18.514 5.67984 18.5457C5.67891 18.5774 5.68637 18.6088 5.70149 18.6369C6.0221 19.2212 6.498 19.7095 7.07874 20.0501C7.65948 20.3907 8.32341 20.5708 9.00012 20.5714Z" fill="black"/>
</svg>
