<svg width="29" height="29" viewBox="0 0 29 29" fill="none" xmlns="http://www.w3.org/2000/svg">
<path d="M26 0H3C1.34315 0 0 1.34315 0 3V26C0 27.6569 1.34315 29 3 29H26C27.6569 29 29 27.6569 29 26V3C29 1.34315 27.6569 0 26 0Z" fill="#AB8B6A"/>
<path d="M14.4 6V10.8C14.4 11.2243 14.5686 11.6313 14.8686 11.9314C15.1687 12.2314 15.5757 12.4 16 12.4H20.8V20.4C20.8 20.8243 20.6314 21.2313 20.3314 21.5314C20.0313 21.8314 19.6243 22 19.2 22H9.6C9.17565 22 8.76869 21.8314 8.46863 21.5314C8.16857 21.2313 8 20.8243 8 20.4V7.6C8 7.17565 8.16857 6.76869 8.46863 6.46863C8.76869 6.16857 9.17565 6 9.6 6H14.4ZM15.6 6.4V10.8C15.6 10.9061 15.6421 11.0078 15.7172 11.0828C15.7922 11.1579 15.8939 11.2 16 11.2H20.4L15.6 6.4Z" fill="white"/>
</svg>
