<svg width="29" height="29" viewBox="0 0 29 29" fill="none" xmlns="http://www.w3.org/2000/svg">
<path d="M26 0H3C1.34315 0 0 1.34315 0 3V26C0 27.6569 1.34315 29 3 29H26C27.6569 29 29 27.6569 29 26V3C29 1.34315 27.6569 0 26 0Z" fill="#AB8B6A"/>
<path d="M21.92 21.0033C21.8711 21.0909 21.7996 21.1636 21.7129 21.2139C21.6261 21.2642 21.5275 21.2901 21.4272 21.289H7.57278C7.47254 21.2901 7.37385 21.2642 7.28713 21.2139C7.2004 21.1636 7.12885 21.0909 7.08002 21.0033C7.02768 20.9173 7 20.8184 7 20.7177C7 20.6169 7.02768 20.5181 7.08002 20.432C8.14605 18.5956 9.8524 17.2173 11.8719 16.5614C10.9039 15.9857 10.1517 15.1082 9.73076 14.0636C9.30984 13.019 9.24353 11.865 9.54202 10.7791C9.84051 9.69314 10.4873 8.73522 11.383 8.05249C12.2787 7.36976 13.3738 7 14.5 7C15.6262 7 16.7213 7.36976 17.617 8.05249C18.5127 8.73522 19.1595 9.69314 19.458 10.7791C19.7565 11.865 19.6902 13.019 19.2692 14.0636C18.8483 15.1082 18.0961 15.9857 17.1281 16.5614C19.1476 17.2173 20.8539 18.5956 21.92 20.432C21.9723 20.5181 22 20.6169 22 20.7177C22 20.8184 21.9723 20.9173 21.92 21.0033Z" fill="white"/>
</svg>
