<svg width="29" height="29" viewBox="0 0 29 29" fill="none" xmlns="http://www.w3.org/2000/svg">
<path d="M26 0H3C1.34315 0 0 1.34315 0 3V26C0 27.6569 1.34315 29 3 29H26C27.6569 29 29 27.6569 29 26V3C29 1.34315 27.6569 0 26 0Z" fill="#AB8B6A"/>
<path d="M16.1481 12.2222H20.2222L16.1481 7.33333V12.2222ZM9.48148 6H16.8889L21.3333 11.3333V20.2222C21.3333 20.6937 21.1772 21.1459 20.8994 21.4793C20.6216 21.8127 20.2448 22 19.8519 22H9.48148C9.08857 22 8.71175 21.8127 8.43392 21.4793C8.15608 21.1459 8 20.6937 8 20.2222V7.77778C8 6.79111 8.65926 6 9.48148 6ZM9.48148 14V15.7778H19.8519V14H9.48148ZM9.48148 17.5556V19.3333H16.1481V17.5556H9.48148Z" fill="white"/>
</svg>
