<svg width="29" height="29" viewBox="0 0 29 29" fill="none" xmlns="http://www.w3.org/2000/svg">
<path d="M26 0H3C1.34315 0 0 1.34315 0 3V26C0 27.6569 1.34315 29 3 29H26C27.6569 29 29 27.6569 29 26V3C29 1.34315 27.6569 0 26 0Z" fill="#AB8B6A"/>
<path d="M19.6 7H8.4C7.7 7 7 7.63 7 8.4V10.507C7 11.011 7.301 11.445 7.7 11.69V19.6C7.7 20.37 8.47 21 9.1 21H18.9C19.53 21 20.3 20.37 20.3 19.6V11.69C20.699 11.445 21 11.011 21 10.507V8.4C21 7.63 20.3 7 19.6 7ZM15.4 15.4H12.6C12.215 15.4 11.9 15.085 11.9 14.7C11.9 14.315 12.215 14 12.6 14H15.4C15.785 14 16.1 14.315 16.1 14.7C16.1 15.085 15.785 15.4 15.4 15.4ZM19.6 10.5H8.4V8.4H19.6V10.5Z" fill="white"/>
</svg>
