<svg width="29" height="29" viewBox="0 0 29 29" fill="none" xmlns="http://www.w3.org/2000/svg">
<path d="M26 0H3C1.34315 0 0 1.34315 0 3V26C0 27.6569 1.34315 29 3 29H26C27.6569 29 29 27.6569 29 26V3C29 1.34315 27.6569 0 26 0Z" fill="#AB8B6A"/>
<path d="M14.1111 6C10.1822 6 7 7.59111 7 9.55556C7 11.52 10.1822 13.1111 14.1111 13.1111C18.04 13.1111 21.2222 11.52 21.2222 9.55556C21.2222 7.59111 18.04 6 14.1111 6ZM7 11.3333V14C7 15.9644 10.1822 17.5556 14.1111 17.5556C18.04 17.5556 21.2222 15.9644 21.2222 14V11.3333C21.2222 13.2978 18.04 14.8889 14.1111 14.8889C10.1822 14.8889 7 13.2978 7 11.3333ZM7 15.7778V18.4444C7 20.4089 10.1822 22 14.1111 22C18.04 22 21.2222 20.4089 21.2222 18.4444V15.7778C21.2222 17.7422 18.04 19.3333 14.1111 19.3333C10.1822 19.3333 7 17.7422 7 15.7778Z" fill="white"/>
</svg>
