<svg width="29" height="29" viewBox="0 0 29 29" fill="none" xmlns="http://www.w3.org/2000/svg">
<path d="M26 0H3C1.34315 0 0 1.34315 0 3V26C0 27.6569 1.34315 29 3 29H26C27.6569 29 29 27.6569 29 26V3C29 1.34315 27.6569 0 26 0Z" fill="#AB8B6A"/>
<path d="M10 6C8.89688 6 8 6.89688 8 8V20C8 21.1031 8.89688 22 10 22H18C19.1031 22 20 21.1031 20 20V11H16C15.4469 11 15 10.5531 15 10V6H10ZM16 6V10H20L16 6ZM10 8.5C10 8.225 10.225 8 10.5 8H12.5C12.775 8 13 8.225 13 8.5C13 8.775 12.775 9 12.5 9H10.5C10.225 9 10 8.775 10 8.5ZM10 10.5C10 10.225 10.225 10 10.5 10H12.5C12.775 10 13 10.225 13 10.5C13 10.775 12.775 11 12.5 11H10.5C10.225 11 10 10.775 10 10.5ZM14 12.75C14.275 12.75 14.5 12.975 14.5 13.25V13.7906C14.7656 13.8281 15.0219 13.8875 15.2531 13.95C15.5188 14.0219 15.6781 14.2937 15.6062 14.5625C15.5344 14.8313 15.2625 14.9875 14.9938 14.9156C14.6469 14.8219 14.3062 14.7531 13.9906 14.75C13.7281 14.7469 13.4469 14.8062 13.2531 14.9219C13.075 15.0281 13 15.15 13 15.3219C13 15.4375 13.0406 15.525 13.2281 15.6375C13.4438 15.7656 13.7469 15.8594 14.1406 15.9781L14.1562 15.9812C14.5094 16.0875 14.9469 16.2188 15.2906 16.4375C15.6688 16.675 15.9906 17.0531 16 17.6313C16.0094 18.2344 15.7 18.6719 15.2844 18.9312C15.0438 19.0812 14.7719 19.1687 14.5 19.2156V19.75C14.5 20.025 14.275 20.25 14 20.25C13.725 20.25 13.5 20.025 13.5 19.75V19.1938C13.15 19.1281 12.8219 19.0156 12.5344 18.9156C12.4688 18.8937 12.4031 18.8719 12.3406 18.85C12.0781 18.7625 11.9375 18.4781 12.025 18.2188C12.1125 17.9594 12.3969 17.8156 12.6562 17.9031C12.7344 17.9281 12.8063 17.9531 12.8781 17.9781C13.3031 18.1219 13.6469 18.2406 14.0125 18.25C14.2969 18.2594 14.5719 18.1969 14.7531 18.0844C14.9125 17.9844 15 17.8563 14.9969 17.6469C14.9937 17.5031 14.9406 17.4031 14.7562 17.2844C14.5437 17.15 14.2406 17.0531 13.85 16.9344L13.8 16.9187C13.4563 16.8156 13.0406 16.6906 12.7125 16.4906C12.3375 16.2656 12.0063 15.9 12.0031 15.325C12 14.7187 12.3406 14.3 12.7469 14.0594C12.9812 13.9219 13.2406 13.8344 13.5 13.7875V13.25C13.5 12.975 13.725 12.75 14 12.75Z" fill="white"/>
</svg>
