<svg width="16" height="16" viewBox="0 0 16 16" fill="none" xmlns="http://www.w3.org/2000/svg">
<path d="M5.05263 0C5.27597 0 5.49016 0.0887215 5.64809 0.246647C5.80601 0.404572 5.89474 0.618765 5.89474 0.842105V1.68421H9.26316V0.842105C9.26316 0.618765 9.35188 0.404572 9.5098 0.246647C9.66773 0.0887215 9.88192 0 10.1053 0C10.3286 0 10.5428 0.0887215 10.7007 0.246647C10.8586 0.404572 10.9474 0.618765 10.9474 0.842105V1.68421H13.4737C13.9204 1.68421 14.3487 1.86165 14.6646 2.1775C14.9804 2.49336 15.1579 2.92174 15.1579 3.36842V14.3158C15.1579 14.7625 14.9804 15.1909 14.6646 15.5067C14.3487 15.8226 13.9204 16 13.4737 16H1.68421C1.23753 16 0.809144 15.8226 0.493294 15.5067C0.177443 15.1909 0 14.7625 0 14.3158V3.36842C0 2.92174 0.177443 2.49336 0.493294 2.1775C0.809144 1.86165 1.23753 1.68421 1.68421 1.68421H4.21053V0.842105C4.21053 0.618765 4.29925 0.404572 4.45717 0.246647C4.6151 0.0887215 4.82929 0 5.05263 0ZM4.21053 3.36842H1.68421V5.89474H13.4737V3.36842H10.9474V4.21053C10.9474 4.43387 10.8586 4.64806 10.7007 4.80598C10.5428 4.96391 10.3286 5.05263 10.1053 5.05263C9.88192 5.05263 9.66773 4.96391 9.5098 4.80598C9.35188 4.64806 9.26316 4.43387 9.26316 4.21053V3.36842H5.89474V4.21053C5.89474 4.43387 5.80601 4.64806 5.64809 4.80598C5.49016 4.96391 5.27597 5.05263 5.05263 5.05263C4.82929 5.05263 4.6151 4.96391 4.45717 4.80598C4.29925 4.64806 4.21053 4.43387 4.21053 4.21053V3.36842ZM13.4737 7.57895H1.68421V14.3158H13.4737V7.57895Z" fill="black" fill-opacity="0.5"/>
</svg>
