<svg width="52" height="49" viewBox="0 0 52 49" fill="none" xmlns="http://www.w3.org/2000/svg">
<path d="M51.4322 24.5C51.4322 38.031 40.0975 49 26.1155 49C12.1335 49 0.798828 38.031 0.798828 24.5C0.798828 10.969 12.1335 0 26.1155 0C40.0975 0 51.4322 10.969 51.4322 24.5Z" fill="#7F7462"/>
<path d="M35.8933 33.6001C35.8282 33.7227 35.7328 33.8245 35.6172 33.8949C35.5015 33.9652 35.3699 34.0015 35.2363 34H16.7637C16.6301 34.0015 16.4985 33.9652 16.3828 33.8949C16.2672 33.8245 16.1718 33.7227 16.1067 33.6001C16.0369 33.4796 16 33.3413 16 33.2003C16 33.0593 16.0369 32.921 16.1067 32.8005C17.5281 30.2301 19.8032 28.3009 22.4959 27.3828C21.2052 26.5771 20.2022 25.3488 19.641 23.8867C19.0798 22.4246 18.9914 20.8095 19.3894 19.2895C19.7873 17.7695 20.6497 16.4287 21.844 15.4731C23.0383 14.5176 24.4984 14 26 14C27.5016 14 28.9617 14.5176 30.156 15.4731C31.3503 16.4287 32.2127 17.7695 32.6106 19.2895C33.0086 20.8095 32.9202 22.4246 32.359 23.8867C31.7978 25.3488 30.7948 26.5771 29.5041 27.3828C32.1968 28.3009 34.4719 30.2301 35.8933 32.8005C35.9631 32.921 36 33.0593 36 33.2003C36 33.3413 35.9631 33.4796 35.8933 33.6001Z" fill="white"/>
</svg>
