<svg width="26" height="26" viewBox="0 0 26 26" fill="none" xmlns="http://www.w3.org/2000/svg">
<path d="M26 13C26 20.1797 20.1797 26 13 26C5.8203 26 0 20.1797 0 13C0 5.8203 5.8203 0 13 0C20.1797 0 26 5.8203 26 13Z" fill="#EDE5D8"/>
<path d="M9.625 6C8.72871 6 8 6.72871 8 7.625V17.375C8 18.2713 8.72871 19 9.625 19H16.125C17.0213 19 17.75 18.2713 17.75 17.375V10.0625H14.5C14.0506 10.0625 13.6875 9.69941 13.6875 9.25V6H9.625ZM14.5 6V9.25H17.75L14.5 6ZM9.625 8.03125C9.625 7.80781 9.80781 7.625 10.0312 7.625H11.6562C11.8797 7.625 12.0625 7.80781 12.0625 8.03125C12.0625 8.25469 11.8797 8.4375 11.6562 8.4375H10.0312C9.80781 8.4375 9.625 8.25469 9.625 8.03125ZM9.625 9.65625C9.625 9.43281 9.80781 9.25 10.0312 9.25H11.6562C11.8797 9.25 12.0625 9.43281 12.0625 9.65625C12.0625 9.87969 11.8797 10.0625 11.6562 10.0625H10.0312C9.80781 10.0625 9.625 9.87969 9.625 9.65625ZM12.875 11.4844C13.0984 11.4844 13.2812 11.6672 13.2812 11.8906V12.3299C13.4971 12.3604 13.7053 12.4086 13.8932 12.4594C14.109 12.5178 14.2385 12.7387 14.1801 12.957C14.1217 13.1754 13.9008 13.3023 13.6824 13.2439C13.4006 13.1678 13.1238 13.1119 12.8674 13.1094C12.6541 13.1068 12.4256 13.1551 12.2682 13.249C12.1234 13.3354 12.0625 13.4344 12.0625 13.574C12.0625 13.668 12.0955 13.7391 12.2479 13.8305C12.423 13.9346 12.6693 14.0107 12.9893 14.1072L13.002 14.1098C13.2889 14.1961 13.6443 14.3027 13.9236 14.4805C14.2309 14.6734 14.4924 14.9807 14.5 15.4504C14.5076 15.9404 14.2562 16.2959 13.9186 16.5066C13.723 16.6285 13.5021 16.6996 13.2812 16.7377V17.1719C13.2812 17.3953 13.0984 17.5781 12.875 17.5781C12.6516 17.5781 12.4687 17.3953 12.4687 17.1719V16.7199C12.1844 16.6666 11.9178 16.5752 11.6842 16.4939C11.6309 16.4762 11.5775 16.4584 11.5268 16.4406C11.3135 16.3695 11.1992 16.1385 11.2703 15.9277C11.3414 15.717 11.5725 15.6002 11.7832 15.6713C11.8467 15.6916 11.9051 15.7119 11.9635 15.7322C12.3088 15.849 12.5881 15.9455 12.8852 15.9531C13.1162 15.9607 13.3396 15.91 13.4869 15.8186C13.6164 15.7373 13.6875 15.6332 13.685 15.4631C13.6824 15.3463 13.6393 15.265 13.4895 15.1686C13.3168 15.0594 13.0705 14.9807 12.7531 14.8842L12.7125 14.8715C12.4332 14.7877 12.0955 14.6861 11.8289 14.5236C11.5242 14.3408 11.2551 14.0437 11.2525 13.5766C11.25 13.084 11.5268 12.7437 11.8568 12.5482C12.0473 12.4365 12.258 12.3654 12.4687 12.3273V11.8906C12.4687 11.6672 12.6516 11.4844 12.875 11.4844Z" fill="#453516" fill-opacity="0.8"/>
</svg>
