<svg width="30" height="30" viewBox="0 0 30 30" fill="none" xmlns="http://www.w3.org/2000/svg">
<ellipse cx="15" cy="14.5704" rx="15" ry="14.4894" fill="#ECD18D"/>
<path d="M15.0205 8.77441H15.9798C16.0651 8.77441 16.1077 8.8156 16.1077 8.89797V19.7706C16.1077 19.853 16.0651 19.8942 15.9798 19.8942H15.0205C14.9352 19.8942 14.8926 19.853 14.8926 19.7706V8.89797C14.8926 8.8156 14.9352 8.77441 15.0205 8.77441Z" fill="#7F7462"/>
<path d="M10.1279 13.748H20.8721C20.9574 13.748 21 13.7892 21 13.8716V14.7982C21 14.8806 20.9574 14.9218 20.8721 14.9218H10.1279C10.0426 14.9218 10 14.8806 10 14.7982V13.8716C10 13.7892 10.0426 13.748 10.1279 13.748Z" fill="#7F7462"/>
</svg>
