<svg width="26" height="26" viewBox="0 0 26 26" fill="none" xmlns="http://www.w3.org/2000/svg">
<path d="M26 13C26 20.1797 20.1797 26 13 26C5.8203 26 0 20.1797 0 13C0 5.8203 5.8203 0 13 0C20.1797 0 26 5.8203 26 13Z" fill="#EDE5D8"/>
<path d="M14.1111 11.6667H17.1667L14.1111 8V11.6667ZM9.11111 7H14.6667L18 11V17.6667C18 18.0203 17.8829 18.3594 17.6746 18.6095C17.4662 18.8595 17.1836 19 16.8889 19H9.11111C8.81643 19 8.53381 18.8595 8.32544 18.6095C8.11706 18.3594 8 18.0203 8 17.6667V8.33333C8 7.59333 8.49444 7 9.11111 7ZM9.11111 13V14.3333H16.8889V13H9.11111ZM9.11111 15.6667V17H14.1111V15.6667H9.11111Z" fill="#453516" fill-opacity="0.8"/>
</svg>
