<svg width="49" height="49" viewBox="0 0 49 49" fill="none" xmlns="http://www.w3.org/2000/svg">
<circle cx="24.5" cy="24.5" r="24.5" fill="#7F7462"/>
<path d="M27 21.7555H32.5L27 15.1555V21.7555ZM18 13.3555H28L34 20.5555V32.5555C34 33.192 33.7893 33.8024 33.4142 34.2525C33.0391 34.7026 32.5304 34.9555 32 34.9555H18C17.4696 34.9555 16.9609 34.7026 16.5858 34.2525C16.2107 33.8024 16 33.192 16 32.5555V15.7555C16 14.4235 16.89 13.3555 18 13.3555ZM18 24.1555V26.5555H32V24.1555H18ZM18 28.9555V31.3555H27V28.9555H18Z" fill="white"/>
</svg>
