<svg width="56" height="55" viewBox="0 0 56 55" fill="none" xmlns="http://www.w3.org/2000/svg">
<g id="Featured icon">
<rect x="0.5" width="55" height="55" rx="27.5" fill="#EDE5D8"/>
<g id="Group 277">
<path id="Vector" d="M18.6 37.4C18.6 38.0896 18.8739 38.7509 19.3615 39.2385C19.8491 39.7261 20.5104 40 21.2 40H34.2C34.8896 40 35.5509 39.7261 36.0385 39.2385C36.5261 38.7509 36.8 38.0896 36.8 37.4V21.8H39.4V19.2H34.2V16.6C34.2 15.9104 33.9261 15.2491 33.4385 14.7615C32.9509 14.2739 32.2896 14 31.6 14H23.8C23.1104 14 22.4491 14.2739 21.9615 14.7615C21.4739 15.2491 21.2 15.9104 21.2 16.6V19.2H16V21.8H18.6V37.4ZM23.8 16.6H31.6V19.2H23.8V16.6ZM22.5 21.8H34.2V37.4H21.2V21.8H22.5Z" fill="#7F7462"/>
<path id="Vector_2" d="M23.8008 24.4004H26.4008V34.8004H23.8008V24.4004ZM29.0008 24.4004H31.6008V34.8004H29.0008V24.4004Z" fill="#7F7462"/>
</g>
</g>
</svg>
