<svg width="26" height="26" viewBox="0 0 26 26" fill="none" xmlns="http://www.w3.org/2000/svg">
<path d="M26 13C26 20.1797 20.1797 26 13 26C5.8203 26 0 20.1797 0 13C0 5.8203 5.8203 0 13 0C20.1797 0 26 5.8203 26 13Z" fill="#EDE5D8"/>
<path d="M18.936 18.7601C18.8969 18.8336 18.8397 18.8947 18.7703 18.9369C18.7009 18.9791 18.622 19.0009 18.5418 19H7.45822C7.37803 19.0009 7.29908 18.9791 7.2297 18.9369C7.16032 18.8947 7.10308 18.8336 7.06402 18.7601C7.02214 18.6878 7 18.6048 7 18.5202C7 18.4356 7.02214 18.3526 7.06402 18.2803C7.91684 16.7381 9.28192 15.5805 10.8976 15.0297C10.1231 14.5463 9.52135 13.8093 9.18461 12.932C8.84787 12.0548 8.79483 11.0857 9.03362 10.1737C9.27241 9.26171 9.78983 8.45724 10.5064 7.88389C11.223 7.31053 12.099 7 13 7C13.901 7 14.777 7.31053 15.4936 7.88389C16.2102 8.45724 16.7276 9.26171 16.9664 10.1737C17.2052 11.0857 17.1521 12.0548 16.8154 12.932C16.4787 13.8093 15.8769 14.5463 15.1024 15.0297C16.7181 15.5805 18.0832 16.7381 18.936 18.2803C18.9779 18.3526 19 18.4356 19 18.5202C19 18.6048 18.9779 18.6878 18.936 18.7601Z" fill="#453516" fill-opacity="0.8"/>
</svg>
