<svg width="12" height="16" viewBox="0 0 12 16" fill="none" xmlns="http://www.w3.org/2000/svg">
<path d="M8 11.6289C8 12.0273 7.85781 12.3704 7.57343 12.6582C7.28906 12.946 6.91965 13.1237 6.46522 13.1914V13.875C6.46522 13.9115 6.45236 13.9414 6.42663 13.9648C6.40091 13.9883 6.36804 14 6.32803 14H5.74927C5.71212 14 5.67996 13.9876 5.65281 13.9629C5.62566 13.9382 5.61208 13.9089 5.61208 13.875V13.1914C5.42345 13.168 5.24125 13.1276 5.06548 13.0703C4.88971 13.013 4.74466 12.9551 4.63034 12.8965C4.51602 12.8379 4.41027 12.7754 4.31309 12.709C4.21592 12.6426 4.14947 12.5938 4.11374 12.5625C4.07802 12.5312 4.05301 12.5078 4.03872 12.4922C3.99013 12.4375 3.98727 12.3841 4.03014 12.332L4.47172 11.8047C4.49172 11.7786 4.52459 11.763 4.57032 11.7578C4.61319 11.7526 4.64749 11.7643 4.67321 11.793L4.68178 11.8008C5.00474 12.0586 5.352 12.2214 5.72355 12.2891C5.8293 12.3099 5.93505 12.3203 6.04079 12.3203C6.2723 12.3203 6.47594 12.2643 6.65171 12.1523C6.82748 12.0404 6.91536 11.8815 6.91536 11.6758C6.91536 11.6029 6.89393 11.5339 6.85106 11.4688C6.80819 11.4036 6.76031 11.349 6.70744 11.3047C6.65456 11.2604 6.57097 11.2116 6.45664 11.1582C6.34232 11.1048 6.248 11.0632 6.17369 11.0332C6.09938 11.0033 5.98506 10.9609 5.83073 10.9062C5.71926 10.8646 5.63138 10.832 5.56707 10.8086C5.50276 10.7852 5.41488 10.7507 5.30341 10.7051C5.19195 10.6595 5.10263 10.6191 5.03547 10.584C4.9683 10.5488 4.88756 10.5026 4.79325 10.4453C4.69893 10.388 4.62248 10.3327 4.56389 10.2793C4.5053 10.2259 4.44313 10.1621 4.3774 10.0879C4.31166 10.0137 4.26093 9.93815 4.22521 9.86133C4.18948 9.78451 4.15947 9.69792 4.13518 9.60156C4.11088 9.50521 4.09874 9.40365 4.09874 9.29688C4.09874 8.9375 4.23878 8.6224 4.51887 8.35156C4.79896 8.08073 5.16337 7.90625 5.61208 7.82812V7.125C5.61208 7.09115 5.62566 7.06185 5.65281 7.03711C5.67996 7.01237 5.71212 7 5.74927 7H6.32803C6.36804 7 6.40091 7.01172 6.42663 7.03516C6.45236 7.05859 6.46522 7.08854 6.46522 7.125V7.8125C6.62813 7.82812 6.78604 7.85807 6.93894 7.90234C7.09185 7.94661 7.21617 7.99023 7.31192 8.0332C7.40767 8.07617 7.49841 8.125 7.58415 8.17969C7.66989 8.23438 7.72563 8.27214 7.75135 8.29297C7.77707 8.3138 7.79851 8.33203 7.81565 8.34766C7.86424 8.39453 7.87139 8.44401 7.83709 8.49609L7.48983 9.06641C7.46697 9.10547 7.4341 9.1263 7.39123 9.12891C7.35122 9.13672 7.31263 9.1276 7.27548 9.10156C7.26691 9.09375 7.24618 9.07812 7.21332 9.05469C7.18045 9.03125 7.12472 8.99674 7.04612 8.95117C6.96752 8.9056 6.88392 8.86393 6.79532 8.82617C6.70672 8.78841 6.60026 8.75456 6.47594 8.72461C6.35161 8.69466 6.22943 8.67969 6.10939 8.67969C5.83787 8.67969 5.61637 8.73568 5.44489 8.84766C5.2734 8.95964 5.18766 9.10417 5.18766 9.28125C5.18766 9.34896 5.19981 9.41146 5.2241 9.46875C5.2484 9.52604 5.29055 9.58008 5.35057 9.63086C5.41059 9.68164 5.46704 9.72461 5.51991 9.75977C5.57279 9.79492 5.65281 9.83529 5.75999 9.88086C5.86717 9.92643 5.95362 9.96159 6.01936 9.98633C6.08509 10.0111 6.18513 10.0469 6.31946 10.0938C6.47093 10.1458 6.58669 10.1868 6.66671 10.2168C6.74674 10.2467 6.85534 10.2923 6.99253 10.3535C7.12972 10.4147 7.23761 10.4701 7.31621 10.5195C7.3948 10.569 7.4834 10.6341 7.58201 10.7148C7.68061 10.7956 7.75635 10.8783 7.80922 10.9629C7.8621 11.0475 7.90711 11.1471 7.94427 11.2617C7.98142 11.3763 8 11.4987 8 11.6289Z" fill="black"/>
<path d="M2 4H3.5H5M2 2H3.5H5" stroke="black" stroke-width="1.2" stroke-linecap="round" stroke-linejoin="round"/>
<path d="M8.6 1.44853L10.5515 3.4H8.6V1.44853ZM0.6 2C0.6 1.22825 1.22825 0.6 2 0.6H6.4V4C6.4 4.8845 7.1155 5.6 8 5.6H11.4V14C11.4 14.7718 10.7718 15.4 10 15.4H2C1.22825 15.4 0.6 14.7718 0.6 14V2Z" stroke="black" stroke-width="1.2"/>
</svg>
