<svg width="18" height="14" viewBox="0 0 18 14" fill="none" xmlns="http://www.w3.org/2000/svg">
<path d="M0 1.125C0 0.826631 0.118527 0.540484 0.329505 0.329505C0.540484 0.118527 0.826631 0 1.125 0H16.875C17.1734 0 17.4595 0.118527 17.6705 0.329505C17.8815 0.540484 18 0.826631 18 1.125C18 1.42337 17.8815 1.70952 17.6705 1.92049C17.4595 2.13147 17.1734 2.25 16.875 2.25H1.125C0.826631 2.25 0.540484 2.13147 0.329505 1.92049C0.118527 1.70952 0 1.42337 0 1.125ZM0 6.75C0 6.45163 0.118527 6.16548 0.329505 5.9545C0.540484 5.74353 0.826631 5.625 1.125 5.625H16.875C17.1734 5.625 17.4595 5.74353 17.6705 5.9545C17.8815 6.16548 18 6.45163 18 6.75C18 7.04837 17.8815 7.33452 17.6705 7.5455C17.4595 7.75647 17.1734 7.875 16.875 7.875H1.125C0.826631 7.875 0.540484 7.75647 0.329505 7.5455C0.118527 7.33452 0 7.04837 0 6.75ZM0 12.375C0 12.0766 0.118527 11.7905 0.329505 11.5795C0.540484 11.3685 0.826631 11.25 1.125 11.25H16.875C17.1734 11.25 17.4595 11.3685 17.6705 11.5795C17.8815 11.7905 18 12.0766 18 12.375C18 12.6734 17.8815 12.9595 17.6705 13.1705C17.4595 13.3815 17.1734 13.5 16.875 13.5H1.125C0.826631 13.5 0.540484 13.3815 0.329505 13.1705C0.118527 12.9595 0 12.6734 0 12.375Z" fill="black"/>
</svg>
