<svg width="16" height="16" viewBox="0 0 16 16" fill="none" xmlns="http://www.w3.org/2000/svg">
<path d="M7.9992 0C12.418 0 16 3.58204 16 8.0008C16 12.4188 12.418 16 7.9992 16C3.58044 16.0008 1.33979e-07 12.4188 1.33979e-07 8.0008C-0.000799786 3.58204 3.58044 0 7.9992 0ZM7.9992 1.19988C7.09994 1.19013 6.20767 1.35882 5.37404 1.69621C4.54041 2.03359 3.78197 2.53296 3.14261 3.16542C2.50326 3.79787 1.9957 4.55085 1.64929 5.38077C1.30289 6.2107 1.12452 7.10108 1.12452 8.0004C1.12452 8.89972 1.30289 9.7901 1.64929 10.62C1.9957 11.4499 2.50326 12.2029 3.14261 12.8354C3.78197 13.4678 4.54041 13.9672 5.37404 14.3046C6.20767 14.642 7.09994 14.8107 7.9992 14.8009C9.79003 14.7815 11.5009 14.0565 12.7604 12.7832C14.0199 11.51 14.7264 9.79134 14.7264 8.0004C14.7264 6.20946 14.0199 4.49081 12.7604 3.21757C11.5009 1.94434 9.79003 1.2193 7.9992 1.19988ZM7.996 6.79932C8.14111 6.79913 8.28138 6.85155 8.3908 6.94686C8.50023 7.04216 8.5714 7.1739 8.59114 7.31767L8.59674 7.39926L8.59994 11.8004C8.6015 11.9535 8.54447 12.1014 8.44054 12.2138C8.33661 12.3262 8.19363 12.3946 8.0409 12.4051C7.88816 12.4155 7.73721 12.3671 7.61897 12.2699C7.50072 12.1727 7.42412 12.0339 7.40486 11.882L7.40006 11.8012L7.39686 7.40006C7.39686 7.24095 7.46007 7.08835 7.57258 6.97584C7.68509 6.86333 7.83769 6.80012 7.9968 6.80012L7.996 6.79932ZM8 4.002C8.10702 3.99861 8.21362 4.01677 8.31349 4.05538C8.41335 4.094 8.50443 4.15229 8.58133 4.22679C8.65823 4.30129 8.71937 4.39049 8.76113 4.48908C8.80288 4.58767 8.8244 4.69365 8.8244 4.80072C8.8244 4.90779 8.80288 5.01377 8.76113 5.11236C8.71937 5.21095 8.65823 5.30015 8.58133 5.37465C8.50443 5.44915 8.41335 5.50744 8.31349 5.54606C8.21362 5.58467 8.10702 5.60283 8 5.59944C7.79254 5.59287 7.59578 5.50585 7.45135 5.35677C7.30692 5.2077 7.22616 5.00828 7.22616 4.80072C7.22616 4.59316 7.30692 4.39374 7.45135 4.24467C7.59578 4.09559 7.79254 4.00857 8 4.002Z" fill="#B42318"/>
</svg>
