<svg width="15" height="18" viewBox="0 0 15 18" fill="none" xmlns="http://www.w3.org/2000/svg">
<path fill-rule="evenodd" clip-rule="evenodd" d="M9.23077 0.230769C9.23077 0.169565 9.20646 0.110868 9.16318 0.0675908C9.1199 0.0243132 9.0612 0 9 0H2.53846C1.86522 0 1.21955 0.267444 0.743498 0.743498C0.267444 1.21955 0 1.86522 0 2.53846V15.4615C0 16.1348 0.267444 16.7804 0.743498 17.2565C1.21955 17.7326 1.86522 18 2.53846 18H11.7692C12.4425 18 13.0881 17.7326 13.5642 17.2565C14.0402 16.7804 14.3077 16.1348 14.3077 15.4615V6.36646C14.3077 6.30526 14.2834 6.24656 14.2401 6.20328C14.1968 6.16001 14.1381 6.13569 14.0769 6.13569H9.92308C9.73947 6.13569 9.56337 6.06275 9.43354 5.93292C9.30371 5.80309 9.23077 5.627 9.23077 5.44339V0.230769ZM9.92308 9.23077C10.1067 9.23077 10.2828 9.30371 10.4126 9.43354C10.5424 9.56337 10.6154 9.73947 10.6154 9.92308C10.6154 10.1067 10.5424 10.2828 10.4126 10.4126C10.2828 10.5424 10.1067 10.6154 9.92308 10.6154H4.38462C4.201 10.6154 4.02491 10.5424 3.89508 10.4126C3.76525 10.2828 3.69231 10.1067 3.69231 9.92308C3.69231 9.73947 3.76525 9.56337 3.89508 9.43354C4.02491 9.30371 4.201 9.23077 4.38462 9.23077H9.92308ZM9.92308 12.9231C10.1067 12.9231 10.2828 12.996 10.4126 13.1258C10.5424 13.2557 10.6154 13.4318 10.6154 13.6154C10.6154 13.799 10.5424 13.9751 10.4126 14.1049C10.2828 14.2348 10.1067 14.3077 9.92308 14.3077H4.38462C4.201 14.3077 4.02491 14.2348 3.89508 14.1049C3.76525 13.9751 3.69231 13.799 3.69231 13.6154C3.69231 13.4318 3.76525 13.2557 3.89508 13.1258C4.02491 12.996 4.201 12.9231 4.38462 12.9231H9.92308Z" fill="#453516"/>
<path d="M10.6172 0.530257C10.6172 0.360411 10.7953 0.252411 10.9273 0.358565C11.039 0.449026 11.1396 0.554257 11.2255 0.674257L14.0067 4.54841C14.0695 4.63703 14.0012 4.75149 13.8923 4.75149H10.848C10.7868 4.75149 10.7281 4.72717 10.6848 4.6839C10.6415 4.64062 10.6172 4.58192 10.6172 4.52072V0.530257Z" fill="black"/>
</svg>
