<svg width="34" height="34" viewBox="0 0 34 34" fill="none" xmlns="http://www.w3.org/2000/svg">
<g id="Icon">
<circle id="Ellipse 3" cx="17" cy="17" r="17" fill="#7F7462"/>
<path id="Vector" fill-rule="evenodd" clip-rule="evenodd" d="M14.8977 12.7C14.3467 13.113 14.0977 13.608 14.0977 14.07C14.0977 14.533 14.3467 15.028 14.8977 15.442C15.4497 15.856 16.2577 16.142 17.1927 16.142C17.4579 16.142 17.7122 16.2474 17.8998 16.4349C18.0873 16.6224 18.1927 16.8768 18.1927 17.142C18.1927 17.4072 18.0873 17.6616 17.8998 17.8491C17.7122 18.0366 17.4579 18.142 17.1927 18.142C15.8667 18.142 14.6277 17.74 13.6977 17.042C12.7677 16.344 12.0977 15.304 12.0977 14.071C12.0977 12.837 12.7677 11.797 13.6977 11.099C14.6277 10.402 15.8677 10 17.1927 10C19.2457 10 21.1867 10.983 21.9587 12.62C22.0147 12.7388 22.0467 12.8676 22.053 12.9988C22.0592 13.13 22.0396 13.2612 21.9952 13.3849C21.9507 13.5085 21.8824 13.6222 21.794 13.7194C21.7057 13.8166 21.599 13.8955 21.4802 13.9515C21.3613 14.0075 21.2326 14.0396 21.1014 14.0458C20.9701 14.0521 20.8389 14.0324 20.7153 13.988C20.5917 13.9436 20.478 13.8752 20.3808 13.7869C20.2835 13.6985 20.2047 13.5918 20.1487 13.473C19.7987 12.726 18.7067 12 17.1937 12C16.2587 12 15.4497 12.286 14.8977 12.7Z" fill="white"/>
<path id="Vector_2" fill-rule="evenodd" clip-rule="evenodd" d="M19.1565 21.583C19.7075 21.17 19.9555 20.675 19.9555 20.213C19.9555 19.75 19.7075 19.254 19.1555 18.841C18.6045 18.427 17.7955 18.141 16.8615 18.141C16.5963 18.141 16.3419 18.0356 16.1544 17.8481C15.9669 17.6606 15.8615 17.4062 15.8615 17.141C15.8615 16.8758 15.9669 16.6214 16.1544 16.4339C16.3419 16.2464 16.5963 16.141 16.8615 16.141C18.1875 16.141 19.4265 16.543 20.3565 17.241C21.2865 17.939 21.9555 18.979 21.9555 20.212C21.9555 21.445 21.2865 22.486 20.3555 23.183C19.4255 23.881 18.1875 24.283 16.8615 24.283C14.8085 24.283 12.8665 23.3 12.0955 21.662C11.9824 21.4221 11.9692 21.1471 12.0589 20.8975C12.1485 20.6479 12.3336 20.4441 12.5735 20.331C12.8134 20.2179 13.0884 20.2047 13.338 20.2943C13.5876 20.384 13.7914 20.5691 13.9045 20.809C14.2565 21.557 15.3485 22.283 16.8615 22.283C17.7965 22.283 18.6045 21.997 19.1565 21.583ZM16.9995 8C17.2647 8 17.5191 8.10536 17.7066 8.29289C17.8942 8.48043 17.9995 8.73478 17.9995 9V10C17.9995 10.2652 17.8942 10.5196 17.7066 10.7071C17.5191 10.8946 17.2647 11 16.9995 11C16.7343 11 16.4799 10.8946 16.2924 10.7071C16.1049 10.5196 15.9995 10.2652 15.9995 10V9C15.9995 8.73478 16.1049 8.48043 16.2924 8.29289C16.4799 8.10536 16.7343 8 16.9995 8Z" fill="white"/>
<path id="Vector_3" fill-rule="evenodd" clip-rule="evenodd" d="M17 23C17.2652 23 17.5196 23.1054 17.7071 23.2929C17.8946 23.4804 18 23.7348 18 24V25C18 25.2652 17.8946 25.5196 17.7071 25.7071C17.5196 25.8946 17.2652 26 17 26C16.7348 26 16.4804 25.8946 16.2929 25.7071C16.1054 25.5196 16 25.2652 16 25V24C16 23.7348 16.1054 23.4804 16.2929 23.2929C16.4804 23.1054 16.7348 23 17 23Z" fill="white"/>
</g>
</svg>
