<svg width="3" height="3" viewBox="0 0 3 3" fill="none" xmlns="http://www.w3.org/2000/svg">
<path d="M3 1.5C3 1.79667 2.91203 2.08668 2.7472 2.33335C2.58238 2.58003 2.34811 2.77229 2.07402 2.88582C1.79994 2.99935 1.49834 3.02906 1.20736 2.97118C0.916393 2.9133 0.649119 2.77044 0.43934 2.56066C0.229562 2.35088 0.0867006 2.08361 0.0288227 1.79263C-0.0290551 1.50166 0.000649929 1.20006 0.114181 0.925975C0.227713 0.651886 0.419972 0.417617 0.666646 0.252795C0.913319 0.0879731 1.20333 0 1.5 0C1.89783 0 2.27936 0.158035 2.56066 0.43934C2.84196 0.720644 3 1.10218 3 1.5Z" fill="black" fill-opacity="0.5"/>
</svg>
