<svg width="15" height="15" viewBox="0 0 15 15" fill="none" xmlns="http://www.w3.org/2000/svg">
<path d="M12.8335 15.0001H2.17062C1.87337 14.988 1.58143 14.9174 1.31151 14.7923C1.04158 14.6672 0.79897 14.4902 0.59755 14.2712C0.396131 14.0523 0.239858 13.7958 0.137674 13.5164C0.0354906 13.237 -0.0105984 12.9402 0.00204445 12.643V10.0716C0.00204445 9.90107 0.0697738 9.73756 0.190333 9.617C0.310892 9.49644 0.474405 9.42871 0.644902 9.42871C0.815398 9.42871 0.978911 9.49644 1.09947 9.617C1.22003 9.73756 1.28776 9.90107 1.28776 10.0716V12.643C1.26563 12.8975 1.34231 13.1508 1.5019 13.3503C1.66149 13.5497 1.89174 13.6801 2.1449 13.7144H12.8335C13.0866 13.6801 13.3169 13.5497 13.4765 13.3503C13.6361 13.1508 13.7127 12.8975 13.6906 12.643V10.0716C13.6906 9.90107 13.7583 9.73756 13.8789 9.617C13.9995 9.49644 14.163 9.42871 14.3335 9.42871C14.504 9.42871 14.6675 9.49644 14.788 9.617C14.9086 9.73756 14.9763 9.90107 14.9763 10.0716V12.643C15.002 13.239 14.7913 13.8211 14.3899 14.2625C13.9886 14.704 13.4292 14.9691 12.8335 15.0001Z" fill="black"/>
<path d="M7.50071 10.7149C7.41624 10.7153 7.33255 10.6988 7.25454 10.6664C7.17653 10.634 7.10577 10.5864 7.04642 10.5263L3.61785 7.09771C3.50429 6.97584 3.44247 6.81466 3.44541 6.64812C3.44835 6.48158 3.51582 6.32267 3.6336 6.20489C3.75138 6.08711 3.91029 6.01964 4.07683 6.0167C4.24337 6.01376 4.40456 6.07558 4.52642 6.18914L7.50071 9.16342L10.475 6.18914C10.5969 6.07558 10.758 6.01376 10.9246 6.0167C11.0911 6.01964 11.25 6.08711 11.3678 6.20489C11.4856 6.32267 11.5531 6.48158 11.556 6.64812C11.5589 6.81466 11.4971 6.97584 11.3836 7.09771L7.95499 10.5263C7.89564 10.5864 7.82488 10.634 7.74687 10.6664C7.66886 10.6988 7.58517 10.7153 7.50071 10.7149Z" fill="black"/>
<path d="M7.50223 10.7143C7.33243 10.7121 7.1702 10.6436 7.05012 10.5235C6.93004 10.4035 6.86159 10.2412 6.85938 10.0714V0.642857C6.85938 0.472361 6.9271 0.308848 7.04766 0.188288C7.16822 0.0677293 7.33174 0 7.50223 0C7.67273 0 7.83624 0.0677293 7.9568 0.188288C8.07736 0.308848 8.14509 0.472361 8.14509 0.642857V10.0714C8.14287 10.2412 8.07443 10.4035 7.95435 10.5235C7.83426 10.6436 7.67204 10.7121 7.50223 10.7143Z" fill="black"/>
</svg>
