<svg width="15" height="15" viewBox="0 0 15 15" fill="none" xmlns="http://www.w3.org/2000/svg">
<path d="M12.8335 14.9992H2.17062C1.87337 14.987 1.58143 14.9164 1.31151 14.7913C1.04158 14.6663 0.79897 14.4892 0.59755 14.2703C0.396131 14.0513 0.239858 13.7948 0.137674 13.5154C0.0354906 13.236 -0.0105984 12.9392 0.00204445 12.642V10.0706C0.00204445 9.9001 0.0697738 9.73658 0.190333 9.61602C0.310892 9.49546 0.474405 9.42773 0.644902 9.42773C0.815398 9.42773 0.978911 9.49546 1.09947 9.61602C1.22003 9.73658 1.28776 9.9001 1.28776 10.0706V12.642C1.26563 12.8965 1.34231 13.1498 1.5019 13.3493C1.66149 13.5488 1.89174 13.6792 2.1449 13.7134H12.8335C13.0866 13.6792 13.3169 13.5488 13.4765 13.3493C13.6361 13.1498 13.7127 12.8965 13.6906 12.642V10.0706C13.6906 9.9001 13.7583 9.73658 13.8789 9.61602C13.9995 9.49546 14.163 9.42773 14.3335 9.42773C14.504 9.42773 14.6675 9.49546 14.788 9.61602C14.9086 9.73658 14.9763 9.9001 14.9763 10.0706V12.642C15.002 13.2381 14.7913 13.8201 14.3899 14.2615C13.9886 14.703 13.4292 14.9681 12.8335 14.9992Z" fill="black"/>
<path d="M7.50071 10.7158C7.41624 10.7162 7.33255 10.6998 7.25454 10.6674C7.17653 10.635 7.10577 10.5874 7.04642 10.5273L3.61785 7.09869C3.50429 6.97682 3.44247 6.81564 3.44541 6.6491C3.44835 6.48255 3.51582 6.32365 3.6336 6.20587C3.75138 6.08808 3.91029 6.02062 4.07683 6.01768C4.24337 6.01474 4.40456 6.07656 4.52642 6.19011L7.50071 9.1644L10.475 6.19011C10.5969 6.07656 10.758 6.01474 10.9246 6.01768C11.0911 6.02062 11.25 6.08808 11.3678 6.20587C11.4856 6.32365 11.5531 6.48255 11.556 6.6491C11.5589 6.81564 11.4971 6.97682 11.3836 7.09869L7.95499 10.5273C7.89564 10.5874 7.82488 10.635 7.74687 10.6674C7.66886 10.6998 7.58517 10.7162 7.50071 10.7158Z" fill="black"/>
<path d="M7.50223 10.7143C7.33243 10.7121 7.1702 10.6436 7.05012 10.5235C6.93004 10.4035 6.86159 10.2412 6.85938 10.0714V0.642857C6.85938 0.472361 6.9271 0.308848 7.04766 0.188288C7.16822 0.0677293 7.33174 0 7.50223 0C7.67273 0 7.83624 0.0677293 7.9568 0.188288C8.07736 0.308848 8.14509 0.472361 8.14509 0.642857V10.0714C8.14287 10.2412 8.07443 10.4035 7.95435 10.5235C7.83426 10.6436 7.67204 10.7121 7.50223 10.7143Z" fill="black"/>
</svg>
