<svg width="24" height="24" viewBox="0 0 24 24" fill="none" xmlns="http://www.w3.org/2000/svg">
<g id="Emoji Icon">
<path id="Vector" d="M11.9981 1.99805C17.5221 1.99805 22.0001 6.47605 22.0001 12C22.0001 17.523 17.5221 22.001 11.9981 22.001C6.47409 22.001 1.99609 17.523 1.99609 12C1.99609 6.47605 6.47409 1.99805 11.9981 1.99805ZM11.9981 3.49805C10.8739 3.48585 9.75846 3.69675 8.71631 4.11852C7.67417 4.54029 6.72602 5.16457 5.92675 5.95521C5.12749 6.74586 4.49296 7.68718 4.05992 8.72469C3.62687 9.7622 3.40389 10.8753 3.40389 11.9995C3.40389 13.1238 3.62687 14.2369 4.05992 15.2744C4.49296 16.3119 5.12749 17.2532 5.92675 18.0439C6.72602 18.8345 7.67417 19.4588 8.71631 19.8806C9.75846 20.3023 10.8739 20.5132 11.9981 20.501C14.2301 20.4668 16.3591 19.5561 17.9254 17.9656C19.4918 16.3751 20.3697 14.2323 20.3697 12C20.3697 9.76776 19.4918 7.62503 17.9254 6.0345C16.3591 4.44398 14.2301 3.53328 11.9981 3.49905V3.49805ZM8.46009 14.783C8.88084 15.3191 9.41805 15.7523 10.031 16.0499C10.644 16.3476 11.3167 16.5019 11.9981 16.501C12.6787 16.5018 13.3505 16.3479 13.9629 16.051C14.5753 15.7541 15.1122 15.3219 15.5331 14.787C15.6564 14.631 15.8367 14.5303 16.0343 14.5071C16.2318 14.4839 16.4305 14.5402 16.5866 14.6635C16.7427 14.7869 16.8434 14.9671 16.8665 15.1647C16.8897 15.3623 16.8334 15.561 16.7101 15.717C16.1488 16.4296 15.4331 17.0055 14.6168 17.4011C13.8006 17.7968 12.9052 18.0019 11.9981 18.001C11.0898 18.0018 10.1933 17.796 9.37631 17.3993C8.55929 17.0026 7.84317 16.4253 7.28209 15.711C7.16429 15.5544 7.11249 15.3579 7.13777 15.1635C7.16306 14.9691 7.26342 14.7924 7.41739 14.6711C7.57135 14.5498 7.76668 14.4936 7.96156 14.5145C8.15644 14.5355 8.33538 14.6318 8.46009 14.783ZM8.99809 8.74905C9.16515 8.74432 9.33147 8.77314 9.4872 8.83381C9.64292 8.89448 9.7849 8.98576 9.90474 9.10225C10.0246 9.21875 10.1198 9.35809 10.1849 9.51204C10.2499 9.66599 10.2834 9.83142 10.2834 9.99855C10.2834 10.1657 10.2499 10.3311 10.1849 10.4851C10.1198 10.639 10.0246 10.7783 9.90474 10.8948C9.7849 11.0113 9.64292 11.1026 9.4872 11.1633C9.33147 11.224 9.16515 11.2528 8.99809 11.248C8.67282 11.2388 8.36397 11.1032 8.13715 10.8698C7.91034 10.6365 7.78345 10.3239 7.78345 9.99855C7.78345 9.67315 7.91034 9.36057 8.13715 9.12725C8.36397 8.89393 8.67282 8.75825 8.99809 8.74905ZM14.9981 8.74905C15.1652 8.74432 15.3315 8.77314 15.4872 8.83381C15.6429 8.89448 15.7849 8.98576 15.9047 9.10225C16.0246 9.21875 16.1198 9.35809 16.1849 9.51204C16.2499 9.66599 16.2834 9.83142 16.2834 9.99855C16.2834 10.1657 16.2499 10.3311 16.1849 10.4851C16.1198 10.639 16.0246 10.7783 15.9047 10.8948C15.7849 11.0113 15.6429 11.1026 15.4872 11.1633C15.3315 11.224 15.1652 11.2528 14.9981 11.248C14.6728 11.2388 14.364 11.1032 14.1372 10.8698C13.9103 10.6365 13.7834 10.3239 13.7834 9.99855C13.7834 9.67315 13.9103 9.36057 14.1372 9.12725C14.364 8.89393 14.6728 8.75825 14.9981 8.74905Z" fill="black" fill-opacity="0.5"/>
</g>
</svg>
