<svg width="20" height="14" viewBox="0 0 20 14" fill="none" xmlns="http://www.w3.org/2000/svg">
<path d="M9.9987 0.75C5.83203 0.75 2.2737 3.34167 0.832031 7C2.2737 10.6583 5.83203 13.25 9.9987 13.25C14.1654 13.25 17.7237 10.6583 19.1654 7C17.7237 3.34167 14.1654 0.75 9.9987 0.75ZM9.9987 11.1667C7.6987 11.1667 5.83203 9.3 5.83203 7C5.83203 4.7 7.6987 2.83333 9.9987 2.83333C12.2987 2.83333 14.1654 4.7 14.1654 7C14.1654 9.3 12.2987 11.1667 9.9987 11.1667ZM9.9987 4.5C8.61536 4.5 7.4987 5.61667 7.4987 7C7.4987 8.38333 8.61536 9.5 9.9987 9.5C11.382 9.5 12.4987 8.38333 12.4987 7C12.4987 5.61667 11.382 4.5 9.9987 4.5Z" fill="#7F7462" fill-opacity="0.5"/>
</svg>
