<svg width="16" height="9" viewBox="0 0 16 9" fill="none" xmlns="http://www.w3.org/2000/svg">
<path d="M5.14286 8.35714C5.14286 8.18665 5.21059 8.02313 5.33115 7.90257C5.4517 7.78201 5.61522 7.71429 5.78571 7.71429H9.64286C9.81335 7.71429 9.97687 7.78201 10.0974 7.90257C10.218 8.02313 10.2857 8.18665 10.2857 8.35714C10.2857 8.52764 10.218 8.69115 10.0974 8.81171C9.97687 8.93227 9.81335 9 9.64286 9H5.78571C5.61522 9 5.4517 8.93227 5.33115 8.81171C5.21059 8.69115 5.14286 8.52764 5.14286 8.35714ZM2.57143 4.5C2.57143 4.3295 2.63916 4.16599 2.75972 4.04543C2.88028 3.92487 3.04379 3.85714 3.21429 3.85714H12.2143C12.3848 3.85714 12.5483 3.92487 12.6689 4.04543C12.7894 4.16599 12.8571 4.3295 12.8571 4.5C12.8571 4.6705 12.7894 4.83401 12.6689 4.95457C12.5483 5.07513 12.3848 5.14286 12.2143 5.14286H3.21429C3.04379 5.14286 2.88028 5.07513 2.75972 4.95457C2.63916 4.83401 2.57143 4.6705 2.57143 4.5ZM0 0.642857C0 0.472361 0.0677295 0.308848 0.188289 0.188289C0.308848 0.0677295 0.472361 0 0.642857 0H14.7857C14.9562 0 15.1197 0.0677295 15.2403 0.188289C15.3608 0.308848 15.4286 0.472361 15.4286 0.642857C15.4286 0.813353 15.3608 0.976867 15.2403 1.09743C15.1197 1.21798 14.9562 1.28571 14.7857 1.28571H0.642857C0.472361 1.28571 0.308848 1.21798 0.188289 1.09743C0.0677295 0.976867 0 0.813353 0 0.642857Z" fill="#343A40"/>
</svg>
