<svg width="14" height="18" viewBox="0 0 14 18" fill="none" xmlns="http://www.w3.org/2000/svg">
<path d="M11 9H12.4C12.5591 9 12.7117 9.06321 12.8243 9.17574C12.9368 9.28826 13 9.44087 13 9.6V16.4C13 16.5591 12.9368 16.7117 12.8243 16.8243C12.7117 16.9368 12.5591 17 12.4 17H1.6C1.44087 17 1.28826 16.9368 1.17574 16.8243C1.06321 16.7117 1 16.5591 1 16.4V9.6C1 9.44087 1.06321 9.28826 1.17574 9.17574C1.28826 9.06321 1.44087 9 1.6 9H3M11 9V5C11 3.667 10.2 1 7 1C3.8 1 3 3.667 3 5V9M11 9H3" stroke="#7F7462" stroke-width="1.5" stroke-linecap="round" stroke-linejoin="round"/>
</svg>
