<svg width="18" height="16" viewBox="0 0 18 16" fill="none" xmlns="http://www.w3.org/2000/svg">
<path d="M14.7273 13.9078H1.63636V4.08967C1.63636 3.63967 1.26818 3.27148 0.818182 3.27148C0.368182 3.27148 0 3.63967 0 4.08967V13.9078C0 14.8078 0.736364 15.5442 1.63636 15.5442H14.7273C15.1773 15.5442 15.5455 15.176 15.5455 14.726C15.5455 14.276 15.1773 13.9078 14.7273 13.9078Z" fill="#453516"/>
<path d="M16.3643 1.63636H10.6371L9.48344 0.482727C9.17253 0.171818 8.75526 0 8.32162 0H4.9098C4.0098 0 3.28162 0.736364 3.28162 1.63636L3.27344 10.6364C3.27344 11.5364 4.0098 12.2727 4.9098 12.2727H16.3643C17.2643 12.2727 18.0007 11.5364 18.0007 10.6364V3.27273C18.0007 2.37273 17.2643 1.63636 16.3643 1.63636ZM13.9098 9H7.36435C7.28837 9 7.2139 8.97884 7.14927 8.9389C7.08465 8.89896 7.03242 8.84181 6.99844 8.77386C6.96447 8.70591 6.95009 8.62984 6.95691 8.55417C6.96373 8.4785 6.99149 8.40623 7.03707 8.34545L8.16616 6.84818C8.3298 6.62727 8.65707 6.62727 8.82071 6.84818L9.81889 8.18182L11.6353 5.75182C11.7989 5.53091 12.1262 5.53091 12.2898 5.75182L14.2371 8.34545C14.2827 8.40623 14.3104 8.4785 14.3172 8.55417C14.3241 8.62984 14.3097 8.70591 14.2757 8.77386C14.2417 8.84181 14.1895 8.89896 14.1249 8.9389C14.0602 8.97884 13.9858 9 13.9098 9Z" fill="#453516"/>
</svg>
