<svg width="20" height="20" viewBox="0 0 20 20" fill="none" xmlns="http://www.w3.org/2000/svg">
<path d="M11.8842 0.14379L11.2842 0.0595795C9.48098 -0.200781 7.64089 0.0567956 5.97846 0.80228C4.31603 1.54777 2.89975 2.75044 1.89474 4.27011C0.825427 5.72272 0.187984 7.44773 0.0557676 9.24662C-0.0764492 11.0455 0.301932 12.8452 1.14737 14.4385C1.23389 14.5982 1.28776 14.7735 1.30583 14.9543C1.3239 15.135 1.30582 15.3175 1.25263 15.4912C0.821053 16.9754 0.421053 18.4701 0 20.0385L0.526316 19.8806C1.94737 19.5017 3.36842 19.1227 4.78947 18.7754C5.08941 18.713 5.40117 18.7424 5.68421 18.8596C6.95915 19.4818 8.35245 19.8241 9.77058 19.8636C11.1887 19.903 12.5989 19.6387 13.9064 19.0882C15.214 18.5378 16.3887 17.7141 17.3517 16.6723C18.3147 15.6306 19.0437 14.3949 19.4898 13.0482C19.936 11.7014 20.0889 10.2749 19.9383 8.86422C19.7877 7.45355 19.3371 6.09141 18.6168 4.86922C17.8964 3.64702 16.923 2.59305 15.7618 1.77803C14.6006 0.963006 13.2785 0.405795 11.8842 0.14379ZM14.5368 13.9543C14.1543 14.2968 13.6877 14.5318 13.1848 14.6354C12.6819 14.7389 12.1604 14.7073 11.6737 14.5438C9.46796 13.9227 7.55433 12.5388 6.27368 10.6385C5.78451 9.96645 5.39126 9.22955 5.10526 8.44905C4.95037 7.99618 4.92244 7.50955 5.0245 7.04193C5.12656 6.57432 5.35471 6.14357 5.68421 5.79642C5.84462 5.5917 6.06296 5.44003 6.31079 5.36118C6.55863 5.28232 6.82447 5.27993 7.07368 5.35432C7.28421 5.40695 7.43158 5.71221 7.62105 5.94379C7.77474 6.37853 7.95474 6.80379 8.15789 7.21747C8.31203 7.42853 8.3764 7.692 8.33695 7.95036C8.29751 8.20871 8.15746 8.44097 7.94737 8.59642C7.47368 9.01747 7.54737 9.36484 7.88421 9.83853C8.62889 10.9113 9.65642 11.7567 10.8526 12.2806C11.1895 12.428 11.4421 12.4596 11.6632 12.1122C11.7579 11.9754 11.8842 11.8596 11.9895 11.7333C12.6 10.9648 12.4105 10.9754 13.3789 11.3964C13.6874 11.5259 13.9863 11.6775 14.2737 11.8491C14.5579 12.0175 14.9895 12.1964 15.0526 12.4491C15.1134 12.7231 15.0974 13.0086 15.0064 13.2742C14.9154 13.5398 14.7529 13.7751 14.5368 13.9543Z" fill="black"/>
</svg>
