<svg width="31" height="31" viewBox="0 0 31 31" fill="none" xmlns="http://www.w3.org/2000/svg">
<rect x="0.5" y="0.5" width="30" height="30" rx="7.5" fill="#AB8B6A" stroke="#AB8B6A"/>
<path d="M22.3769 8.61905C21.5476 7.78558 20.5599 7.12475 19.4712 6.6751C18.3826 6.22544 17.2149 5.99597 16.0362 6.00005C11.0975 6.00005 7.07236 10.005 7.07236 14.919C7.07236 16.494 7.48844 18.024 8.26633 19.374L7 24L11.7487 22.758C13.0603 23.469 14.5347 23.847 16.0362 23.847C20.9749 23.847 25 19.842 25 14.928C25 12.543 24.0683 10.302 22.3769 8.61905ZM16.0362 22.335C14.6975 22.335 13.3859 21.975 12.2372 21.3L11.9658 21.138L9.14372 21.876L9.89447 19.14L9.71357 18.861C8.96982 17.6793 8.5749 16.3133 8.57387 14.919C8.57387 10.833 11.9206 7.50305 16.0271 7.50305C18.0171 7.50305 19.8894 8.27705 21.2915 9.68104C21.9857 10.3686 22.5358 11.1864 22.91 12.0871C23.2842 12.9878 23.475 13.9534 23.4714 14.928C23.4894 19.014 20.1427 22.335 16.0362 22.335ZM20.1246 16.791C19.8985 16.683 18.795 16.143 18.596 16.062C18.3879 15.99 18.2432 15.954 18.0894 16.17C17.9357 16.395 17.5106 16.899 17.3839 17.043C17.2573 17.196 17.1216 17.214 16.8955 17.097C16.6693 16.989 15.9457 16.746 15.0955 15.99C14.4261 15.396 13.9829 14.667 13.8472 14.442C13.7206 14.217 13.8291 14.1 13.9467 13.983C14.0462 13.884 14.1729 13.722 14.2814 13.596C14.3899 13.47 14.4352 13.371 14.5075 13.227C14.5799 13.074 14.5437 12.948 14.4894 12.84C14.4352 12.732 13.9829 11.634 13.802 11.184C13.6211 10.752 13.4312 10.806 13.2955 10.797H12.8613C12.7075 10.797 12.4724 10.851 12.2643 11.076C12.0653 11.301 11.4864 11.841 11.4864 12.939C11.4864 14.037 12.2915 15.099 12.4 15.243C12.5085 15.396 13.9829 17.646 16.2261 18.609C16.7598 18.843 17.1759 18.978 17.5015 19.077C18.0352 19.248 18.5236 19.221 18.9126 19.167C19.3467 19.104 20.2422 18.627 20.4231 18.105C20.6131 17.583 20.6131 17.142 20.5497 17.043C20.4864 16.944 20.3508 16.899 20.1246 16.791Z" fill="white"/>
</svg>
