<svg width="8" height="15" viewBox="0 0 8 15" fill="none" xmlns="http://www.w3.org/2000/svg">
<path d="M1.25 8.75C1.94036 8.75 2.5 8.19036 2.5 7.5C2.5 6.80964 1.94036 6.25 1.25 6.25C0.559644 6.25 0 6.80964 0 7.5C0 8.19036 0.559644 8.75 1.25 8.75Z" fill="black" fill-opacity="0.5"/>
<path d="M1.25 2.5C1.94036 2.5 2.5 1.94036 2.5 1.25C2.5 0.559644 1.94036 0 1.25 0C0.559644 0 0 0.559644 0 1.25C0 1.94036 0.559644 2.5 1.25 2.5Z" fill="black" fill-opacity="0.5"/>
<path d="M1.25 15C1.94036 15 2.5 14.4404 2.5 13.75C2.5 13.0596 1.94036 12.5 1.25 12.5C0.559644 12.5 0 13.0596 0 13.75C0 14.4404 0.559644 15 1.25 15Z" fill="black" fill-opacity="0.5"/>
<path d="M6.25 8.75C6.94036 8.75 7.5 8.19036 7.5 7.5C7.5 6.80964 6.94036 6.25 6.25 6.25C5.55964 6.25 5 6.80964 5 7.5C5 8.19036 5.55964 8.75 6.25 8.75Z" fill="black" fill-opacity="0.5"/>
<path d="M6.25 2.5C6.94036 2.5 7.5 1.94036 7.5 1.25C7.5 0.559644 6.94036 0 6.25 0C5.55964 0 5 0.559644 5 1.25C5 1.94036 5.55964 2.5 6.25 2.5Z" fill="black" fill-opacity="0.5"/>
<path d="M6.25 15C6.94036 15 7.5 14.4404 7.5 13.75C7.5 13.0596 6.94036 12.5 6.25 12.5C5.55964 12.5 5 13.0596 5 13.75C5 14.4404 5.55964 15 6.25 15Z" fill="black" fill-opacity="0.5"/>
</svg>
