<svg width="31" height="31" viewBox="0 0 31 31" fill="none" xmlns="http://www.w3.org/2000/svg">
<rect x="0.5" y="0.5" width="30" height="30" rx="7.5" stroke="black" stroke-opacity="0.5"/>
<path d="M8.75093 21.2466H9.97657L17.5274 13.6849L16.3018 12.4575L8.75093 20.0192V21.2466ZM21.27 12.4137L17.5493 8.73151L18.775 7.50411C19.1106 7.16804 19.5229 7 20.012 7C20.5005 7 20.9126 7.16804 21.2482 7.50411L22.4738 8.73151C22.8094 9.06758 22.9845 9.47321 22.9991 9.94838C23.0137 10.423 22.8532 10.8283 22.5176 11.1644L21.27 12.4137ZM20.0006 13.7068L10.7207 23H7V19.274L16.2799 9.98082L20.0006 13.7068ZM16.9146 13.0712L16.3018 12.4575L17.5274 13.6849L16.9146 13.0712Z" fill="#343A40"/>
</svg>
