<svg width="29" height="29" viewBox="0 0 29 29" fill="none" xmlns="http://www.w3.org/2000/svg">
<path d="M26 0H3C1.34315 0 0 1.34315 0 3V26C0 27.6569 1.34315 29 3 29H26C27.6569 29 29 27.6569 29 26V3C29 1.34315 27.6569 0 26 0Z" fill="#AB8B6A"/>
<path d="M14.6667 7C10.9833 7 8 8.49167 8 10.3333C8 12.175 10.9833 13.6667 14.6667 13.6667C18.35 13.6667 21.3333 12.175 21.3333 10.3333C21.3333 8.49167 18.35 7 14.6667 7ZM8 12V14.5C8 16.3417 10.9833 17.8333 14.6667 17.8333C18.35 17.8333 21.3333 16.3417 21.3333 14.5V12C21.3333 13.8417 18.35 15.3333 14.6667 15.3333C10.9833 15.3333 8 13.8417 8 12ZM8 16.1667V18.6667C8 20.5083 10.9833 22 14.6667 22C18.35 22 21.3333 20.5083 21.3333 18.6667V16.1667C21.3333 18.0083 18.35 19.5 14.6667 19.5C10.9833 19.5 8 18.0083 8 16.1667Z" fill="white"/>
</svg>
