<svg width="55" height="55" viewBox="0 0 55 55" fill="none" xmlns="http://www.w3.org/2000/svg">
<rect width="55" height="55" rx="27.5" fill="#EDE5D8"/>
<path d="M29.7037 24.5556H35.3056L29.7037 17.8333V24.5556ZM20.537 16H30.7222L36.8333 23.3333V35.5556C36.8333 36.2039 36.6187 36.8256 36.2367 37.284C35.8547 37.7425 35.3366 38 34.7963 38H20.537C19.9968 38 19.4787 37.7425 19.0966 37.284C18.7146 36.8256 18.5 36.2039 18.5 35.5556V18.4444C18.5 17.0878 19.4065 16 20.537 16ZM20.537 27V29.4444H34.7963V27H20.537ZM20.537 31.8889V34.3333H29.7037V31.8889H20.537Z" fill="#453516" fill-opacity="0.8"/>
</svg>
