<svg width="28" height="28" viewBox="0 0 28 28" fill="none" xmlns="http://www.w3.org/2000/svg">
<circle cx="14" cy="14" r="12.5" fill="#E2D2B8" stroke="#EDE5D8" stroke-width="3"/>
<path d="M19.936 19.2027C19.8969 19.2727 19.8397 19.3309 19.7703 19.3711C19.7009 19.4114 19.622 19.4321 19.5418 19.4312H8.45822C8.37803 19.4321 8.29908 19.4114 8.2297 19.3711C8.16032 19.3309 8.10308 19.2727 8.06402 19.2027C8.02214 19.1338 8 19.0547 8 18.9741C8 18.8935 8.02214 18.8145 8.06402 18.7456C8.91684 17.2765 10.2819 16.1739 11.8976 15.6491C11.1231 15.1886 10.5213 14.4866 10.1846 13.6509C9.84787 12.8152 9.79483 11.892 10.0336 11.0233C10.2724 10.1545 10.7898 9.38817 11.5064 8.84199C12.223 8.29581 13.099 8 14 8C14.901 8 15.777 8.29581 16.4936 8.84199C17.2102 9.38817 17.7276 10.1545 17.9664 11.0233C18.2052 11.892 18.1521 12.8152 17.8154 13.6509C17.4787 14.4866 16.8769 15.1886 16.1024 15.6491C17.7181 16.1739 19.0832 17.2765 19.936 18.7456C19.9779 18.8145 20 18.8935 20 18.9741C20 19.0547 19.9779 19.1338 19.936 19.2027Z" fill="#453516"/>
</svg>
