<svg width="28" height="28" viewBox="0 0 28 28" fill="none" xmlns="http://www.w3.org/2000/svg">
<circle cx="14" cy="14" r="12.5" fill="#E2D2B8" stroke="#EDE5D8" stroke-width="3"/>
<path d="M18.8 8H9.2C8.6 8 8 8.54 8 9.2V11.006C8 11.438 8.258 11.81 8.6 12.02V18.8C8.6 19.46 9.26 20 9.8 20H18.2C18.74 20 19.4 19.46 19.4 18.8V12.02C19.742 11.81 20 11.438 20 11.006V9.2C20 8.54 19.4 8 18.8 8ZM15.2 15.2H12.8C12.47 15.2 12.2 14.93 12.2 14.6C12.2 14.27 12.47 14 12.8 14H15.2C15.53 14 15.8 14.27 15.8 14.6C15.8 14.93 15.53 15.2 15.2 15.2ZM18.8 11H9.2V9.2H18.8V11Z" fill="#453516"/>
</svg>
