<svg width="28" height="28" viewBox="0 0 28 28" fill="none" xmlns="http://www.w3.org/2000/svg">
<circle cx="14" cy="14" r="12.5" fill="#E2D2B8" stroke="#EDE5D8" stroke-width="3"/>
<path d="M15.1111 12.6667H18.1667L15.1111 9V12.6667ZM10.1111 8H15.6667L19 12V18.6667C19 19.0203 18.8829 19.3594 18.6746 19.6095C18.4662 19.8595 18.1836 20 17.8889 20H10.1111C9.81643 20 9.53381 19.8595 9.32544 19.6095C9.11706 19.3594 9 19.0203 9 18.6667V9.33333C9 8.59333 9.49444 8 10.1111 8ZM10.1111 14V15.3333H17.8889V14H10.1111ZM10.1111 16.6667V18H15.1111V16.6667H10.1111Z" fill="#453516"/>
</svg>
