<svg width="28" height="28" viewBox="0 0 28 28" fill="none" xmlns="http://www.w3.org/2000/svg">
<circle cx="14" cy="14" r="12.5" fill="#E2D2B8" stroke="#EDE5D8" stroke-width="3"/>
<path d="M14 7C10.685 7 8 8.3425 8 10C8 11.6575 10.685 13 14 13C17.315 13 20 11.6575 20 10C20 8.3425 17.315 7 14 7ZM8 11.5V13.75C8 15.4075 10.685 16.75 14 16.75C17.315 16.75 20 15.4075 20 13.75V11.5C20 13.1575 17.315 14.5 14 14.5C10.685 14.5 8 13.1575 8 11.5ZM8 15.25V17.5C8 19.1575 10.685 20.5 14 20.5C17.315 20.5 20 19.1575 20 17.5V15.25C20 16.9075 17.315 18.25 14 18.25C10.685 18.25 8 16.9075 8 15.25Z" fill="#453516"/>
</svg>
