<svg width="28" height="28" viewBox="0 0 28 28" fill="none" xmlns="http://www.w3.org/2000/svg">
<circle cx="14" cy="14" r="12.5" fill="#E2D2B8" stroke="#EDE5D8" stroke-width="3"/>
<path d="M14.7546 7C14.9604 7 15.1445 7.1281 15.2138 7.31989L15.708 8.68974C15.885 8.73384 16.0369 8.77794 16.1657 8.82414C16.3064 8.87454 16.4877 8.95083 16.7117 9.05513L17.8625 8.44615C17.9564 8.39639 18.0639 8.37842 18.169 8.39496C18.274 8.41149 18.3708 8.46163 18.4449 8.53785L19.457 9.58431C19.5914 9.72361 19.6292 9.9273 19.5536 10.1051L19.0139 11.37C19.1035 11.5344 19.1749 11.6751 19.2295 11.7927C19.2883 11.9208 19.3611 12.0972 19.4479 12.3247L20.7058 12.8637C20.8948 12.9442 21.0117 13.1332 20.9991 13.3355L20.9067 14.7879C20.9004 14.8823 20.8665 14.9727 20.8092 15.048C20.752 15.1233 20.6739 15.1801 20.5847 15.2114L19.3933 15.6349C19.359 15.7994 19.3233 15.9401 19.2855 16.0591C19.2246 16.2429 19.155 16.4237 19.0769 16.6009L19.6754 17.9238C19.7177 18.0168 19.729 18.1208 19.7079 18.2207C19.6867 18.3206 19.6341 18.4111 19.5578 18.4789L18.4197 19.4953C18.3447 19.5619 18.2512 19.6041 18.1516 19.6161C18.052 19.6281 17.9511 19.6094 17.8625 19.5625L16.6893 18.9409C16.5058 19.0381 16.3164 19.1239 16.1223 19.1978L15.61 19.3896L15.155 20.6495C15.1213 20.7418 15.0604 20.8217 14.9805 20.8788C14.9005 20.9359 14.8052 20.9675 14.707 20.9694L13.377 20.9995C13.2762 21.0022 13.177 20.9735 13.0932 20.9175C13.0093 20.8614 12.9449 20.7808 12.9088 20.6866L12.3726 19.2678C12.1896 19.2053 12.0085 19.1376 11.8294 19.0648C11.6829 19.0014 11.5386 18.933 11.3968 18.8597L10.0669 19.4281C9.97922 19.4655 9.88261 19.4766 9.78878 19.46C9.69495 19.4435 9.60795 19.4001 9.53837 19.335L8.5542 18.4117C8.48093 18.3433 8.43103 18.2535 8.41156 18.1552C8.39209 18.0568 8.40404 17.9548 8.44571 17.8636L9.01759 16.6177C8.94153 16.4701 8.87102 16.3197 8.80619 16.1669C8.73053 15.9798 8.6605 15.7905 8.5962 15.5992L7.34325 15.2177C7.2414 15.1869 7.15257 15.1234 7.09055 15.0369C7.02853 14.9505 6.99679 14.846 7.00026 14.7396L7.04926 13.395C7.05274 13.3072 7.08015 13.2221 7.12851 13.1489C7.17687 13.0756 7.24435 13.0169 7.32365 12.9792L8.6382 12.3478C8.6991 12.1245 8.7523 11.9509 8.7992 11.8242C8.86523 11.655 8.93856 11.4887 9.01899 11.3259L8.44921 10.1219C8.40597 10.0305 8.39284 9.92768 8.4117 9.82831C8.43057 9.72895 8.48046 9.63813 8.5542 9.56891L9.53697 8.64074C9.60586 8.57577 9.69206 8.53208 9.7852 8.51495C9.87834 8.49781 9.97444 8.50795 10.062 8.54415L11.3905 9.09293C11.5375 8.99493 11.6705 8.91584 11.7909 8.85214C11.9344 8.77584 12.1262 8.69604 12.3677 8.60995L12.8297 7.32129C12.8638 7.22698 12.9262 7.14551 13.0084 7.08801C13.0906 7.03051 13.1885 6.99977 13.2888 7H14.7546ZM14.0168 11.9131C12.85 11.9131 11.9043 12.8476 11.9043 14.0012C11.9043 15.1547 12.85 16.0899 14.0168 16.0899C15.183 16.0899 16.1286 15.1547 16.1286 14.0012C16.1286 12.8476 15.1837 11.9131 14.0168 11.9131Z" fill="#453516"/>
</svg>
