<svg width="28" height="28" viewBox="0 0 28 28" fill="none" xmlns="http://www.w3.org/2000/svg">
<rect width="28" height="28" fill="#F5F5F5"/>
<g id="Roles Setting Create" clip-path="url(#clip0_2_2)">
<rect width="1600" height="1174" transform="translate(-336 -880)" fill="white"/>
<g id="User Management">
<rect x="-15.5" y="-15.5" width="384" height="215" rx="7.5" fill="white"/>
<g id="Header">
<g id="Content">
<g id="Icon">
<circle id="Ellipse 47" cx="14" cy="14" r="12.5" fill="#E2D2B8" stroke="#EDE5D8" stroke-width="3"/>
<path id="Vector" d="M16.844 17.9969C16.8983 18.0705 16.9305 18.158 16.9371 18.2492C16.9437 18.3404 16.9244 18.4316 16.8813 18.5123C16.8387 18.5924 16.7752 18.6596 16.6976 18.7066C16.62 18.7536 16.5311 18.7787 16.4404 18.7793H7.49802C7.40727 18.7787 7.31838 18.7536 7.24076 18.7066C7.16314 18.6596 7.09968 18.5924 7.05711 18.5123C7.01403 18.4316 6.99467 18.3404 7.00126 18.2492C7.00785 18.158 7.04014 18.0705 7.09437 17.9969C7.78869 17.004 8.77042 16.2477 9.90748 15.8296C9.24094 15.3868 8.73466 14.7412 8.46356 13.9883C8.19246 13.2354 8.17094 12.4152 8.4022 11.6492C8.63346 10.8831 9.1052 10.2119 9.74762 9.73474C10.39 9.25762 11.169 9 11.9692 9C12.7694 9 13.5484 9.25762 14.1908 9.73474C14.8332 10.2119 15.3049 10.8831 15.5362 11.6492C15.7674 12.4152 15.7459 13.2354 15.4748 13.9883C15.2037 14.7412 14.6974 15.3868 14.0309 15.8296C15.168 16.2477 16.1497 17.004 16.844 17.9969ZM21.9114 17.9969C21.2131 17.0053 20.2298 16.2494 19.092 15.8296C19.7607 15.3885 20.2691 14.7433 20.5416 13.99C20.8141 13.2368 20.8362 12.4157 20.6045 11.6489C20.3729 10.882 19.8999 10.2105 19.2559 9.7341C18.6119 9.25771 17.8314 9.00194 17.0303 9.00482C16.6884 9.00663 16.3482 9.05255 16.0181 9.14144C15.9405 9.16473 15.8697 9.20617 15.8114 9.26233C15.753 9.31849 15.709 9.38775 15.6828 9.46436C15.6578 9.54034 15.6515 9.62123 15.6645 9.70015C15.6774 9.77908 15.7093 9.8537 15.7573 9.91768C16.3189 10.6723 16.6416 11.5779 16.6836 12.5176C16.7257 13.4574 16.4852 14.3882 15.9933 15.1899C15.9302 15.2965 15.9086 15.4225 15.9326 15.544C15.9567 15.6655 16.0247 15.7738 16.1237 15.8482C16.31 15.9931 16.49 16.1421 16.6639 16.2953L16.695 16.3264C17.3578 16.9398 17.8956 17.6757 18.2785 18.4936C18.3178 18.5791 18.3809 18.6515 18.4601 18.7021C18.5394 18.7528 18.6316 18.7796 18.7256 18.7793H21.5015C21.5922 18.7787 21.6811 18.7536 21.7588 18.7066C21.8364 18.6596 21.8998 18.5924 21.9424 18.5123C21.985 18.4318 22.0046 18.3411 21.9991 18.2502C21.9936 18.1593 21.9633 18.0717 21.9114 17.9969Z" fill="#453516"/>
</g>
</g>
<path d="M-8 -15.5H361C365.142 -15.5 368.5 -12.1421 368.5 -8V43.5H-15.5V-8C-15.5 -12.1421 -12.1421 -15.5 -8 -15.5Z" stroke="#EAECF0"/>
</g>
<rect x="-15.5" y="-15.5" width="384" height="215" rx="7.5" stroke="#EAECF0"/>
</g>
</g>
<defs>
<clipPath id="clip0_2_2">
<rect width="1600" height="1174" fill="white" transform="translate(-336 -880)"/>
</clipPath>
</defs>
</svg>
