<svg width="14" height="13" viewBox="0 0 14 13" fill="none" xmlns="http://www.w3.org/2000/svg">
<path d="M10.0057 8.1761H9.37336L9.14923 7.97541C9.96079 7.10133 10.4068 5.98542 10.4059 4.83133C10.4059 3.87579 10.1008 2.9417 9.52909 2.14719C8.95738 1.35268 8.14478 0.733437 7.19407 0.367765C6.24335 0.00209334 5.1972 -0.0935831 4.18792 0.0928349C3.17865 0.279253 2.25157 0.739392 1.52392 1.41507C0.796269 2.09074 0.300734 2.9516 0.099976 3.88879C-0.100782 4.82597 0.00225437 5.79739 0.396055 6.6802C0.789856 7.56301 1.45673 8.31756 2.31236 8.84844C3.16798 9.37931 4.17392 9.66266 5.20297 9.66266C6.49171 9.66266 7.67639 9.22413 8.58891 8.49571L8.80503 8.70383V9.29102L12.8073 13L14 11.8925L10.0057 8.1761ZM5.20297 8.1761C3.20984 8.1761 1.60092 6.6821 1.60092 4.83133C1.60092 2.98056 3.20984 1.48657 5.20297 1.48657C7.19611 1.48657 8.80503 2.98056 8.80503 4.83133C8.80503 6.6821 7.19611 8.1761 5.20297 8.1761Z" fill="#343A40"/>
</svg>
