<svg width="24" height="24" viewBox="0 0 24 24" fill="none" xmlns="http://www.w3.org/2000/svg">
<path d="M12.8141 12.1978L5.2821 13.4538C5.19551 13.4683 5.11425 13.5053 5.04649 13.5611C4.97873 13.6169 4.92686 13.6896 4.8961 13.7718L2.2991 20.7288C2.0511 21.3688 2.7201 21.9788 3.3341 21.6718L21.3341 12.6718C21.4588 12.6096 21.5636 12.5138 21.6369 12.3953C21.7102 12.2768 21.7491 12.1402 21.7491 12.0008C21.7491 11.8615 21.7102 11.7249 21.6369 11.6063C21.5636 11.4878 21.4588 11.3921 21.3341 11.3298L3.3341 2.32982C2.7201 2.02282 2.0511 2.63382 2.2991 3.27282L4.8971 10.2298C4.92772 10.3122 4.97952 10.3851 5.04729 10.4411C5.11506 10.4971 5.1964 10.5343 5.2831 10.5488L12.8151 11.8038C12.8615 11.8119 12.9035 11.8361 12.9337 11.8722C12.964 11.9082 12.9806 11.9538 12.9806 12.0008C12.9806 12.0479 12.964 12.0934 12.9337 12.1295C12.9035 12.1655 12.8615 12.1897 12.8151 12.1978H12.8141Z" fill="black" fill-opacity="0.5"/>
</svg>
