<svg width="31" height="31" viewBox="0 0 31 31" fill="none" xmlns="http://www.w3.org/2000/svg">
<rect x="0.5" y="0.5" width="30" height="30" rx="7.5" stroke="black" stroke-opacity="0.5"/>
<path d="M8.77778 22.2C8.77778 22.6774 8.96508 23.1352 9.29848 23.4728C9.63187 23.8104 10.0841 24 10.5556 24H19.4444C19.9159 24 20.3681 23.8104 20.7015 23.4728C21.0349 23.1352 21.2222 22.6774 21.2222 22.2V11.4H23V9.6H19.4444V7.8C19.4444 7.32261 19.2571 6.86477 18.9237 6.52721C18.5903 6.18964 18.1382 6 17.6667 6H12.3333C11.8618 6 11.4097 6.18964 11.0763 6.52721C10.7429 6.86477 10.5556 7.32261 10.5556 7.8V9.6H7V11.4H8.77778V22.2ZM12.3333 7.8H17.6667V9.6H12.3333V7.8ZM11.4444 11.4H19.4444V22.2H10.5556V11.4H11.4444Z" fill="#343A40"/>
<path d="M12 13H13.6667V20H12V13ZM15.3333 13H17V20H15.3333V13Z" fill="#343A40"/>
</svg>
