<svg width="20" height="13" viewBox="0 0 20 13" fill="none" xmlns="http://www.w3.org/2000/svg">
<path d="M13.086 11.9599C13.1581 12.0577 13.201 12.174 13.2098 12.2953C13.2186 12.4165 13.1928 12.5378 13.1356 12.645C13.079 12.7516 12.9946 12.8408 12.8914 12.9033C12.7882 12.9658 12.6701 12.9992 12.5494 13H0.662032C0.541402 12.9992 0.423234 12.9658 0.320049 12.9033C0.216865 12.8408 0.132508 12.7516 0.0759173 12.645C0.0186503 12.5378 -0.00708912 12.4165 0.00167613 12.2953C0.0104414 12.174 0.0533533 12.0577 0.125448 11.9599C1.04844 10.6401 2.35349 9.63464 3.86503 9.0788C2.97897 8.4902 2.30594 7.63197 1.94556 6.63113C1.58518 5.63028 1.55658 4.54001 1.864 3.52165C2.17142 2.50329 2.79853 1.61096 3.65251 0.976713C4.5065 0.342465 5.54199 0 6.60573 0C7.66948 0 8.70497 0.342465 9.55896 0.976713C10.4129 1.61096 11.04 2.50329 11.3475 3.52165C11.6549 4.54001 11.6263 5.63028 11.2659 6.63113C10.9055 7.63197 10.2325 8.4902 9.34644 9.0788C10.858 9.63464 12.163 10.6401 13.086 11.9599ZM19.8222 11.9599C18.894 10.6417 17.5869 9.63691 16.0744 9.0788C16.9632 8.49243 17.6391 7.63479 18.0014 6.63345C18.3636 5.63212 18.393 4.54059 18.085 3.52123C17.7771 2.50187 17.1483 1.60916 16.2922 0.975873C15.4362 0.342588 14.3985 0.00257294 13.3337 0.00640556C12.8792 0.00881607 12.4269 0.0698578 11.9881 0.188019C11.885 0.218979 11.7908 0.274072 11.7133 0.348728C11.6357 0.423383 11.5771 0.515449 11.5423 0.617286C11.5091 0.718289 11.5007 0.82582 11.518 0.930737C11.5352 1.03565 11.5776 1.13486 11.6414 1.21991C12.388 2.22305 12.8169 3.42688 12.8728 4.67612C12.9287 5.92536 12.6091 7.16269 11.9551 8.22853C11.8712 8.37015 11.8425 8.53773 11.8745 8.69918C11.9065 8.86063 11.9969 9.00462 12.1284 9.10357C12.3761 9.29619 12.6155 9.49431 12.8466 9.69794L12.8879 9.73922C13.7691 10.5546 14.4839 11.533 14.993 12.6203C15.0452 12.7339 15.129 12.8301 15.2344 12.8974C15.3398 12.9647 15.4623 13.0003 15.5873 13H19.2774C19.398 12.9992 19.5162 12.9658 19.6194 12.9033C19.7225 12.8408 19.8069 12.7516 19.8635 12.645C19.9201 12.538 19.9461 12.4175 19.9389 12.2967C19.9316 12.1758 19.8912 12.0593 19.8222 11.9599Z" fill="black"/>
</svg>
