<svg width="15" height="14" viewBox="0 0 15 14" fill="none" xmlns="http://www.w3.org/2000/svg">
<path d="M10.033 8.79146L9.32551 9.32208L10.1449 9.65474C11.7625 10.3114 13.1125 11.4926 13.9783 13.0084C14.0138 13.0775 14.0218 13.1576 14.0004 13.2324C13.9786 13.3088 13.9279 13.3738 13.8591 13.4136C13.7903 13.4534 13.7087 13.4648 13.6315 13.4455C13.5563 13.4267 13.4911 13.3801 13.449 13.3151C12.1434 11.0659 9.83312 9.71475 7.26918 9.71475C4.70203 9.71475 2.38908 11.0686 1.08433 13.3238L1.08019 13.331L1.07629 13.3383C1.05692 13.3745 1.03046 13.4064 0.998502 13.4322C0.96654 13.4579 0.929723 13.477 0.890239 13.4883C0.850756 13.4995 0.809412 13.5027 0.768666 13.4977C0.727917 13.4926 0.688601 13.4795 0.653054 13.4589C0.617504 13.4384 0.586447 13.4109 0.561728 13.3781C0.537009 13.3453 0.519134 13.3079 0.509165 13.2681C0.499196 13.2283 0.497337 13.1868 0.503698 13.1463C0.510059 13.1057 0.524511 13.0669 0.546193 13.032L0.551274 13.0238L0.556036 13.0155C1.42166 11.4962 2.77332 10.3125 4.39343 9.65474L5.21285 9.32208L4.50535 8.79146C3.73192 8.21138 3.1606 7.40266 2.87234 6.47984C2.58407 5.55702 2.59346 4.56689 2.89919 3.64971C3.20492 2.73252 3.79148 1.93478 4.57579 1.36949C5.36009 0.804192 6.30238 0.5 7.26918 0.5C8.23597 0.5 9.17826 0.804192 9.96257 1.36949C10.7469 1.93478 11.3334 2.73252 11.6392 3.64971C11.9449 4.56689 11.9543 5.55702 11.666 6.47984C11.3777 7.40266 10.8064 8.21138 10.033 8.79146ZM3.27534 5.10838C3.27655 6.16708 3.69767 7.18265 4.44629 7.93127C5.19491 8.67988 6.2099 9.10099 7.2686 9.10221C8.0585 9.10221 8.83125 8.86798 9.48803 8.42913C10.1448 7.99028 10.6567 7.36653 10.959 6.63675C11.2613 5.90698 11.3404 5.10395 11.1863 4.32922C11.0322 3.5545 10.6518 2.84286 10.0932 2.28432C9.53469 1.72577 8.82306 1.3454 8.04833 1.19129C7.27361 1.03719 6.47058 1.11628 5.7408 1.41856C5.01103 1.72085 4.38727 2.23275 3.94843 2.88953C3.50958 3.54631 3.27535 4.31848 3.27534 5.10838Z" fill="black" stroke="black"/>
</svg>
